<?xml version="1.0" encoding="UTF-8"?>
<svg xmlns="http://www.w3.org/2000/svg" version="1.2" viewBox="0 0 512 520" width="512" height="512" style="shape-rendering:geometricPrecision; text-rendering:geometricPrecision; image-rendering:optimizeQuality; fill-rule:evenodd; clip-rule:evenodd" xmlns:xlink="http://www.w3.org/1999/xlink">
<g><path style="opacity:0.978" fill="#000000" d="M 178.5,-0.5 C 229.833,-0.5 281.167,-0.5 332.5,-0.5C 332.5,50.5 332.5,101.5 332.5,152.5C 281.167,152.5 229.833,152.5 178.5,152.5C 178.5,101.5 178.5,50.5 178.5,-0.5 Z M 205.5,26.5 C 238.833,26.5 272.167,26.5 305.5,26.5C 305.5,59.5 305.5,92.5 305.5,125.5C 272.167,125.5 238.833,125.5 205.5,125.5C 205.5,92.5 205.5,59.5 205.5,26.5 Z"/></g>
<g><path style="opacity:0.937" fill="#000000" d="M 241.5,178.5 C 250.833,178.5 260.167,178.5 269.5,178.5C 269.5,229.5 269.5,280.5 269.5,331.5C 260.167,331.5 250.833,331.5 241.5,331.5C 241.5,280.5 241.5,229.5 241.5,178.5 Z"/></g>
<g><path style="opacity:0.958" fill="#000000" d="M 267.5,511.5 C 259.5,511.5 251.5,511.5 243.5,511.5C 208.59,504.093 186.424,483.093 177,448.5C 171.672,417.483 180.506,391.316 203.5,370C 238.167,345.333 272.833,345.333 307.5,370C 335.384,396.709 342.551,428.209 329,464.5C 316.097,490.251 295.597,505.918 267.5,511.5 Z M 251.5,378.5 C 285.552,380.02 304.552,397.686 308.5,431.5C 307.203,454.936 295.87,471.436 274.5,481C 244.319,489.489 221.819,479.989 207,452.5C 197.537,423.886 205.37,401.386 230.5,385C 237.292,381.726 244.292,379.559 251.5,378.5 Z"/></g>
</svg>
