<?xml version="1.0" standalone="no"?>
<!DOCTYPE svg PUBLIC "-//W3C//DTD SVG 20010904//EN"
 "http://www.w3.org/TR/2001/REC-SVG-20010904/DTD/svg10.dtd">
<svg version="1.0" xmlns="http://www.w3.org/2000/svg"
 width="200.000000pt" height="200.000000pt" viewBox="0 0 200.000000 200.000000"
 preserveAspectRatio="xMidYMid meet">

<g transform="translate(0.000000,200.000000) scale(0.100000,-0.100000)"
fill="#000000" stroke="none">
<path d="M875 1910 c-100 -18 -203 -60 -352 -144 -107 -59 -230 -195 -284
-315 -70 -152 -91 -236 -96 -382 -6 -162 10 -260 61 -373 19 -41 37 -85 41
-98 21 -66 147 -212 248 -287 62 -46 209 -113 309 -141 96 -27 233 -35 338
-21 157 21 354 105 465 199 62 53 135 131 135 146 0 3 17 32 37 63 39 61 95
186 112 250 40 151 33 343 -18 494 -32 96 -35 101 -99 214 -44 76 -187 235
-211 235 -6 0 -36 16 -67 36 -64 41 -146 76 -244 106 -74 23 -291 33 -375 18z
m410 -179 c267 -107 451 -341 476 -602 25 -270 -34 -442 -216 -624 -79 -80
-103 -97 -195 -142 -134 -65 -188 -78 -330 -77 -171 1 -281 37 -426 140 -134
95 -256 269 -295 423 -22 85 -26 249 -8 332 46 214 203 413 410 519 120 62
171 71 371 65 124 -4 144 -7 213 -34z"/>
<path d="M568 1469 c-17 -9 -18 -41 -18 -439 0 -414 1 -430 19 -440 11 -5 62
-10 115 -10 102 0 126 10 126 54 0 39 -30 56 -98 56 l-62 0 2 343 3 342 65 3
c71 3 90 13 90 48 0 44 -23 54 -128 54 -53 0 -105 -5 -114 -11z"/>
<path d="M1250 1461 c-30 -57 -5 -81 82 -81 l68 0 0 -345 0 -345 -63 0 c-68 0
-97 -17 -97 -56 1 -46 21 -54 129 -54 154 0 141 -42 141 448 0 353 -2 411 -16
430 -14 20 -23 22 -124 22 -98 0 -110 -2 -120 -19z"/>
</g>
</svg>
